<?xml version="1.0" standalone="no"?><!-- Generator: Gravit.io --><svg xmlns="http://www.w3.org/2000/svg" xmlns:xlink="http://www.w3.org/1999/xlink" style="isolation:isolate" viewBox="0 0 360 360" width="360" height="360"><defs><clipPath id="_clipPath_sxwGQbjNmoqL2IbnZXGzhoSu3B6auFvL"><rect width="360" height="360"/></clipPath></defs><g clip-path="url(#_clipPath_sxwGQbjNmoqL2IbnZXGzhoSu3B6auFvL)"><path d=" M 270 173 C 269.8 173 269.6 173 269.4 173 C 265 142.5 238.8 119 207 119 C 188.6 119 172 126.9 160.4 139.6 C 155.2 137.9 149.7 137 144 137 C 120.4 137 100.4 152.1 93 173.1 C 92 173 91 173 90 173 C 70.1 173 54 189.1 54 209 C 54 228.9 70.1 245 90 245 L 270 245 C 289.9 245 306 228.9 306 209 C 306 189.1 289.9 173 270 173 Z  M 83 223.9 L 74.3 223.9 L 74.3 195.9 L 83 195.9 L 83 223.9 L 83 223.9 Z  M 82.4 190.2 C 82 190.9 81.5 191.4 80.8 191.8 C 80.1 192.2 79.3 192.4 78.5 192.4 C 77.7 192.4 76.9 192.2 76.2 191.8 C 75.5 191.4 75 190.8 74.6 190.1 C 74.2 189.4 74 188.6 74 187.8 C 74 187 74.2 186.2 74.6 185.5 C 75 184.8 75.6 184.2 76.3 183.8 C 77 183.4 77.7 183.2 78.6 183.2 C 79.4 183.2 80.2 183.4 80.9 183.8 C 81.6 184.2 82.1 184.8 82.5 185.5 C 82.9 186.2 83.1 187 83.1 187.8 C 83 188.8 82.8 189.6 82.4 190.2 Z  M 98.7 223.8 L 90 223.9 L 90 185 L 98.7 185 L 98.7 223.8 L 98.7 223.8 Z  M 130.4 212.1 C 130.4 220 126.4 224.2 118.3 224.7 L 117.8 224.7 C 109.7 224.3 105.7 220.1 105.7 212.1 L 105.7 195.8 L 114.5 195.8 L 114.5 212.1 C 114.5 215.1 115.6 216.6 117.8 216.7 L 118.3 216.7 C 120.5 216.6 121.6 215.1 121.6 212.1 L 121.6 195.8 L 130.4 195.8 L 130.4 212.1 L 130.4 212.1 Z  M 178 223.8 L 169.2 223.8 L 169.2 207.2 C 169.2 204.2 168.1 202.7 165.9 202.6 L 165.4 202.6 C 163.3 202.7 162.2 204 162.1 206.6 L 162.1 223.8 L 153.3 223.8 L 153.3 206.6 C 153.2 204 152.1 202.7 150 202.6 L 149.5 202.6 C 147.3 202.7 146.2 204.2 146.2 207.2 L 146.2 223.8 L 137.4 223.8 L 137.4 207.2 C 137.4 199.3 141.4 195.1 149.5 194.6 L 150 194.6 C 153.2 194.8 155.8 195.5 157.7 196.9 C 159.6 195.6 162.2 194.8 165.4 194.6 L 165.9 194.6 C 174 195 178 199.2 178 207.2 L 178 223.8 L 178 223.8 Z  M 194 223.9 L 185.3 223.9 L 185.3 195.9 L 194 195.9 L 194 223.9 L 194 223.9 Z  M 193.5 190.2 C 193.1 190.9 192.6 191.4 191.9 191.8 C 191.2 192.2 190.4 192.4 189.6 192.4 C 188.8 192.4 188 192.2 187.3 191.8 C 186.6 191.4 186.1 190.8 185.7 190.1 C 185.3 189.4 185.1 188.6 185.1 187.8 C 185.1 187 185.3 186.2 185.7 185.5 C 186.1 184.8 186.7 184.2 187.4 183.8 C 188.1 183.4 188.8 183.2 189.7 183.2 C 190.5 183.2 191.3 183.4 192 183.8 C 192.7 184.2 193.2 184.8 193.6 185.5 C 194 186.2 194.2 187 194.2 187.8 C 194.1 188.8 193.9 189.6 193.5 190.2 Z  M 225.7 223.8 L 216.9 223.8 L 216.9 207.3 C 216.9 204.3 215.8 202.7 213.6 202.7 L 213.1 202.7 C 210.9 202.8 209.8 204.3 209.8 207.3 L 209.8 223.8 L 201 223.8 L 201 207.3 C 201 199.3 205 195.2 213.1 194.7 L 213.6 194.7 C 221.7 195.1 225.7 199.3 225.7 207.3 L 225.7 223.8 L 225.7 223.8 Z  M 264.7 223.9 L 256 223.8 L 256 223 C 255.4 223.3 255 223.4 254.7 223.5 C 252.8 224.2 250.7 224.6 248.6 224.6 C 245.8 224.6 243.2 224 240.7 222.7 C 238.2 221.4 236.3 219.6 234.8 217.3 C 233.3 215 232.6 212.4 232.6 209.6 C 232.6 207.5 233 205.5 233.9 203.6 C 234.8 201.8 235.9 200.2 237.4 198.8 C 238.9 197.5 240.6 196.4 242.5 195.7 C 244.5 195 246.5 194.6 248.6 194.6 C 250.7 194.6 252.7 195 254.7 195.7 C 256.7 196.4 258.4 197.5 259.8 198.8 C 261.3 200.2 262.5 201.8 263.4 203.6 C 264.3 205.4 264.7 207.4 264.7 209.6 L 264.7 223.9 L 264.7 223.9 Z  M 286 203.1 C 285.5 202.8 285 202.6 284.2 202.6 L 283.7 202.6 C 281.5 202.7 280.4 204.2 280.4 207.2 L 280.4 223.8 L 271.6 223.8 L 271.6 207.2 C 271.6 199.2 275.6 195.1 283.7 194.6 L 284.2 194.6 C 284.8 194.6 285.4 194.7 286 194.8 L 286 203.1 L 286 203.1 Z " fill="rgb(49,108,102)"/><path d=" M 252.3 203.5 C 251.2 202.9 250 202.6 248.7 202.6 C 247.4 202.6 246.2 202.9 245.1 203.5 C 244 204.1 243.1 205 242.4 206.1 C 241.7 207.2 241.4 208.4 241.4 209.6 C 241.4 211.5 242.1 213.2 243.6 214.6 C 245 216 246.7 216.7 248.7 216.7 C 250.7 216.7 252.4 216 253.8 214.6 C 255.3 213.2 256 211.5 256 209.6 C 256 208.3 255.7 207.1 255 206.1 C 254.3 205 253.4 204.2 252.3 203.5 Z " fill="rgb(62,61,102)"/><path d=" M 252.3 203.5 C 251.2 202.9 250 202.6 248.7 202.6 C 247.4 202.6 246.2 202.9 245.1 203.5 C 244 204.1 243.1 205 242.4 206.1 C 241.7 207.2 241.4 208.4 241.4 209.6 C 241.4 211.5 242.1 213.2 243.6 214.6 C 245 216 246.7 216.7 248.7 216.7 C 250.7 216.7 252.4 216 253.8 214.6 C 255.3 213.2 256 211.5 256 209.6 C 256 208.3 255.7 207.1 255 206.1 C 254.3 205 253.4 204.2 252.3 203.5 Z " fill="rgb(100,213,202)"/><path d=" M 270 169 C 269.8 169 269.6 169 269.4 169 C 265 138.5 238.8 115 207 115 C 188.6 115 172 122.9 160.4 135.6 C 155.2 133.9 149.7 133 144 133 C 120.4 133 100.4 148.1 93 169.1 C 92 169 91 169 90 169 C 70.1 169 54 185.1 54 205 C 54 224.9 70.1 241 90 241 L 270 241 C 289.9 241 306 224.9 306 205 C 306 185.1 289.9 169 270 169 Z  M 83 223.9 L 74.3 223.9 L 74.3 195.9 L 83 195.9 L 83 223.9 L 83 223.9 Z  M 82.4 190.2 C 82 190.9 81.5 191.4 80.8 191.8 C 80.1 192.2 79.3 192.4 78.5 192.4 C 77.7 192.4 76.9 192.2 76.2 191.8 C 75.5 191.4 75 190.8 74.6 190.1 C 74.2 189.4 74 188.6 74 187.8 C 74 187 74.2 186.2 74.6 185.5 C 75 184.8 75.6 184.2 76.3 183.8 C 77 183.4 77.7 183.2 78.6 183.2 C 79.4 183.2 80.2 183.4 80.9 183.8 C 81.6 184.2 82.1 184.8 82.5 185.5 C 82.9 186.2 83.1 187 83.1 187.8 C 83 188.8 82.8 189.6 82.4 190.2 Z  M 98.7 223.8 L 90 223.9 L 90 185 L 98.7 185 L 98.7 223.8 L 98.7 223.8 Z  M 130.4 212.1 C 130.4 220 126.4 224.2 118.3 224.7 L 117.8 224.7 C 109.7 224.3 105.7 220.1 105.7 212.1 L 105.7 195.8 L 114.5 195.8 L 114.5 212.1 C 114.5 215.1 115.6 216.6 117.8 216.7 L 118.3 216.7 C 120.5 216.6 121.6 215.1 121.6 212.1 L 121.6 195.8 L 130.4 195.8 L 130.4 212.1 L 130.4 212.1 Z  M 178 223.8 L 169.2 223.8 L 169.2 207.2 C 169.2 204.2 168.1 202.7 165.9 202.6 L 165.4 202.6 C 163.3 202.7 162.2 204 162.1 206.6 L 162.1 223.8 L 153.3 223.8 L 153.3 206.6 C 153.2 204 152.1 202.7 150 202.6 L 149.5 202.6 C 147.3 202.7 146.2 204.2 146.2 207.2 L 146.2 223.8 L 137.4 223.8 L 137.4 207.2 C 137.4 199.3 141.4 195.1 149.5 194.6 L 150 194.6 C 153.2 194.8 155.8 195.5 157.7 196.9 C 159.6 195.6 162.2 194.8 165.4 194.6 L 165.9 194.6 C 174 195 178 199.2 178 207.2 L 178 223.8 L 178 223.8 Z  M 194 223.9 L 185.3 223.9 L 185.3 195.9 L 194 195.9 L 194 223.9 L 194 223.9 Z  M 193.5 190.2 C 193.1 190.9 192.6 191.4 191.9 191.8 C 191.2 192.2 190.4 192.4 189.6 192.4 C 188.8 192.4 188 192.2 187.3 191.8 C 186.6 191.4 186.1 190.8 185.7 190.1 C 185.3 189.4 185.1 188.6 185.1 187.8 C 185.1 187 185.3 186.2 185.7 185.5 C 186.1 184.8 186.7 184.2 187.4 183.8 C 188.1 183.4 188.8 183.2 189.7 183.2 C 190.5 183.2 191.3 183.4 192 183.8 C 192.7 184.2 193.2 184.8 193.6 185.5 C 194 186.2 194.2 187 194.2 187.8 C 194.1 188.8 193.9 189.6 193.5 190.2 Z  M 225.7 223.8 L 216.9 223.8 L 216.9 207.3 C 216.9 204.3 215.8 202.7 213.6 202.7 L 213.1 202.7 C 210.9 202.8 209.8 204.3 209.8 207.3 L 209.8 223.8 L 201 223.8 L 201 207.3 C 201 199.3 205 195.2 213.1 194.7 L 213.6 194.7 C 221.7 195.1 225.7 199.3 225.7 207.3 L 225.7 223.8 L 225.7 223.8 Z  M 264.7 223.9 L 256 223.8 L 256 223 C 255.4 223.3 255 223.4 254.7 223.5 C 252.8 224.2 250.7 224.6 248.6 224.6 C 245.8 224.6 243.2 224 240.7 222.7 C 238.2 221.4 236.3 219.6 234.8 217.3 C 233.3 215 232.6 212.4 232.6 209.6 C 232.6 207.5 233 205.5 233.9 203.6 C 234.8 201.8 235.9 200.2 237.4 198.8 C 238.9 197.5 240.6 196.4 242.5 195.7 C 244.5 195 246.5 194.6 248.6 194.6 C 250.7 194.6 252.7 195 254.7 195.7 C 256.7 196.4 258.4 197.5 259.8 198.8 C 261.3 200.2 262.5 201.8 263.4 203.6 C 264.3 205.4 264.7 207.4 264.7 209.6 L 264.7 223.9 L 264.7 223.9 Z  M 286 203.1 C 285.5 202.8 285 202.6 284.2 202.6 L 283.7 202.6 C 281.5 202.7 280.4 204.2 280.4 207.2 L 280.4 223.8 L 271.6 223.8 L 271.6 207.2 C 271.6 199.2 275.6 195.1 283.7 194.6 L 284.2 194.6 C 284.8 194.6 285.4 194.7 286 194.8 L 286 203.1 L 286 203.1 Z " fill="rgb(100,213,202)"/></g></svg>